<svg xmlns="http://www.w3.org/2000/svg" viewBox="0 0 500 300">
  <!-- Background Circle -->
  <circle cx="250" cy="150" r="130" fill="#2563eb" />
  <circle cx="250" cy="150" r="110" fill="#1e40af" />
  
  <!-- Dollar Symbol -->
  <path d="M250 80 C235 80, 225 90, 225 105 C225 120, 237 127, 255 130 C270 133, 285 140, 285 160 C285 180, 270 190, 250 190 C230 190, 215 180, 215 160" 
        stroke="#ffffff" stroke-width="12" fill="none" stroke-linecap="round" />
  <line x1="250" y1="70" x2="250" y2="200" stroke="#ffffff" stroke-width="12" stroke-linecap="round" />
  
  <!-- Graph Lines -->
  <polyline points="170,190 200,170 230,180 260,150 290,130 320,160" 
            stroke="#4ade80" stroke-width="6" fill="none" stroke-linecap="round" stroke-linejoin="round" />
  
  <!-- Control Hub Text Arc -->
  <path id="textArc" d="M250,250 m-100,0 a100,100 0 1,1 200,0" fill="none" />
  <text fill="#ffffff" font-family="Arial, sans-serif" font-weight="bold" font-size="20">
    <textPath href="#textArc" startOffset="50%" text-anchor="middle">MONEY CONTROL HUB</textPath>
  </text>
</svg>
